<svg xmlns="http://www.w3.org/2000/svg" viewBox="0 0 160.25 30.74">
<g fill="#040506">
<path d="M159.99,14.76v2.26h-21.9c-.02,2.26,.88,4.43,2.51,6,1.63,1.51,3.79,2.31,6,2.23,1.8,.13,3.57-.41,5-1.5,1.12-.97,2.02-2.16,2.65-3.5l4.91,2.55c-.63,1.24-1.4,2.4-2.32,3.45-1.11,1.27-2.47,2.29-4,3-2,.89-4.17,1.31-6.36,1.23-2.64,.06-5.25-.57-7.57-1.83-2.14-1.2-3.9-2.99-5.06-5.16-1.25-2.39-1.87-5.05-1.82-7.75v-.7c-.05-2.7,.56-5.38,1.79-7.79,1.15-2.16,2.88-3.95,5-5.16,2.28-1.25,4.84-1.89,7.43-1.84,2.52-.05,5.01,.58,7.19,1.83,2.05,1.21,3.72,2.97,4.81,5.08,1.21,2.35,1.8,4.96,1.74,7.6Zm-21.83-2.28h15.77c-.04-1.94-.88-3.77-2.31-5.08-3.22-2.44-7.67-2.44-10.89,0-1.45,1.32-2.37,3.13-2.57,5.08Z"/>
<path d="M127.83,5.1c.9,1.71,1.34,3.62,1.27,5.54V29.64h-5.95V11.1c.3-2.71-1.65-5.15-4.37-5.45-.35-.04-.7-.04-1.06,0-1.68-.07-3.31,.58-4.47,1.8l-1.94-2.2c.66-1.33,1.64-2.47,2.86-3.31,1.6-.98,3.47-1.45,5.34-1.34,1.71-.03,3.4,.36,4.91,1.14,1.44,.77,2.63,1.93,3.41,3.36Z"/>
<path d="M111.31,5.25l1.94,2.2c-1.2,1.44-1.8,3.29-1.67,5.16V29.67h-5.93V11.1c.3-2.71-1.66-5.15-4.37-5.45h-.03c-.35-.04-.7-.04-1.06,0-1.27-.05-2.52,.31-3.55,1.03l-1.74-2.25c.63-1.09,1.53-2.01,2.6-2.67,3.15-1.6,6.88-1.54,9.97,.15,1.26,.83,2.26,1.99,2.91,3.34h.93Z"/>
<path d="M94.9,4.43l1.74,2.25c-.32,.22-.62,.48-.9,.77-1.2,1.44-1.8,3.29-1.68,5.16V29.67h-5.92V1.07h5.84v3.36h.92Z"/>
<path d="M83.08,7.13c1.32,2.38,1.98,5.08,1.9,7.8v.87c.08,2.74-.58,5.44-1.9,7.84-1.22,2.16-3.05,3.92-5.26,5.07-2.35,1.21-4.98,1.82-7.63,1.77-2.64,.05-5.25-.56-7.6-1.77-2.18-1.16-3.99-2.92-5.22-5.07-1.32-2.4-1.98-5.1-1.91-7.84v-.87c-.07-2.72,.59-5.41,1.91-7.8,1.23-2.15,3.04-3.9,5.22-5.07,4.8-2.4,10.44-2.4,15.23,0,2.2,1.16,4.02,2.92,5.26,5.07Zm-4.04,7.97c.15-2.56-.72-5.08-2.43-7-3.57-3.37-9.16-3.37-12.74,0-1.72,1.91-2.61,4.43-2.46,7v.52c-.15,2.57,.74,5.09,2.46,7,1.66,1.69,3.96,2.61,6.32,2.52,2.39,.1,4.71-.82,6.39-2.52,1.72-1.91,2.61-4.43,2.46-7v-.52Z"/>
<polygon points="45.02 15.4 56.52 29.67 49.41 29.67 41.49 19.79 33.57 29.67 26.47 29.67 37.97 15.4 41.5 11.03 49.5 1.03 56.5 1.03 45.02 15.4"/>
<polygon points="33.49 1.03 37.99 6.68 34.49 11.03 26.49 1.03 33.49 1.03"/>
<path d="M11.81,25.55c2.12,.1,4.2-.63,5.78-2.05,1.51-1.48,2.31-3.54,2.2-5.66v-.59H11.47c-1.34-.07-2.67,.28-3.81,1-.96,.69-1.49,1.82-1.41,3-.05,1.23,.51,2.4,1.5,3.13,1.2,.83,2.64,1.24,4.09,1.16h-.03Zm13.81-14.37V29.67h-4.97v-4.06h-.87c-.4,.71-.86,1.37-1.38,2-.74,.87-1.67,1.55-2.72,2-1.5,.62-3.11,.91-4.74,.84-1.86,.05-3.72-.29-5.45-1-1.53-.64-2.86-1.71-3.82-3.08-.98-1.46-1.47-3.18-1.42-4.94-.06-1.74,.43-3.46,1.41-4.9,.99-1.32,2.33-2.34,3.87-2.93,1.78-.68,3.68-1.02,5.58-1h8.66v-1.84c.08-1.48-.47-2.93-1.5-4-1.27-1.1-2.93-1.65-4.61-1.51-1.68-.12-3.35,.4-4.68,1.45-1.09,1-1.83,2.32-2.13,3.77l-5.55-1.8c.46-1.53,1.22-2.96,2.22-4.21,1.12-1.3,2.51-2.33,4.08-3C9.53,.62,11.62,.21,13.72,.25c3.69,0,6.6,.95,8.72,2.85s3.18,4.58,3.18,8.07Z"/>
</g>
</svg>
